<?xml version="1.0" encoding="utf-8"?>
<!-- Generator: Adobe Illustrator 22.0.1, SVG Export Plug-In . SVG Version: 6.00 Build 0)  -->
<svg version="1.1" id="Layer_1" xmlns="http://www.w3.org/2000/svg" xmlns:xlink="http://www.w3.org/1999/xlink" x="0px" y="0px"
	 viewBox="0 0 400 400" style="enable-background:new 0 0 400 400;" xml:space="preserve">
<style type="text/css">
	.st0{display:none;fill:none;stroke:#333333;stroke-miterlimit:10;}
	.st1{fill:#333333;}
	.st2{display:none;}
	.st3{display:inline;}
	.st4{display:inline;fill:#333333;}
</style>
<rect x="1.5" y="-0.5" class="st0" width="400" height="400"/>
<g>
	<path class="st1" d="M350.6,138.5l-10-0.7c-4.3-0.3-8.5,1.2-11.7,4.1c-2.1,1.9-3.5,4.3-4.3,7l-18.7-48l-0.3-0.7
		c-9.5-17.4-83.4-18.7-105.9-18.7c0,0,0,0,0,0c-28.5,0-95.8,1.8-105.1,18.7l-19,48.7c-0.8-2.7-2.2-5.1-4.3-7
		c-3.1-2.9-7.4-4.4-11.7-4.1l-10,0.7c-11,0.8-19.6,10-19.6,21c0,5.7,4.6,10.3,10.3,10.3h24.3L46.9,190l-0.3,0.4
		c-3.8,5.1-5.9,11.9-5.9,18.6l0,34.6l0,43.3l5.2,31.5h60.6l2.9-27.2h181.6l2.8,27.2h60.6l5.1-30.5l0.1-44.2V209
		c0-6.7-2.2-13.5-5.9-18.6l-17.9-20.6H360c5.7,0,10.3-4.6,10.3-10.3C370.2,148.5,361.6,139.3,350.6,138.5z M360,164h-30.2v-10.8
		c0-2.7,1.1-5.3,3.1-7.1c2-1.8,4.6-2.8,7.3-2.6l10,0.7c8,0.6,14.2,7.3,14.2,15.3C364.4,162,362.4,164,360,164z M104.8,105.5
		c3.5-4.9,34.1-12.1,89.9-12.5c59.7-0.5,96.5,6.9,100.6,12.5l22.8,58.4h-236L104.8,105.5z M35.8,159.5c0-8,6.2-14.7,14.2-15.3
		l10-0.7c0.2,0,0.5,0,0.7,0c2.5,0,4.8,0.9,6.6,2.6c2,1.8,3.1,4.4,3.1,7.1V164H40.2C37.8,164,35.8,162,35.8,159.5z M52.3,212.7
		l58.7,7.9c3.7,0.2,9,4.9,12,10.8c2,4,2.2,7,1.4,8.2c-0.7,1.1-2.6,1.2-4.2,1.1H52.3V212.7z M347.9,240.7l-68,0
		c-1.4,0.1-3.3-0.1-4-1.1c-0.8-1.2-0.7-4.2,1.4-8.2c3-5.9,8.2-10.6,12.2-10.8l58.4-7.9V240.7z M347.7,206.9l-58.8,7.9
		c-6.9,0.4-13.6,7.5-16.8,14c-2.8,5.6-3.2,10.7-1.1,14c1.1,1.8,3.5,3.8,8.1,3.8c0.3,0,0.6,0,0.9,0l67.9,0v39.9l-3.4,20.4h-40.3
		l-1.6-15.6h20.9v-11.6h-22.1h-1.6H100.5h-1.6H76.8v11.6h20.9L96,306.8H55.7l-3.4-20.4l0-39.9l67.7,0c0.3,0,0.7,0,1,0
		c4.7,0,7.1-2,8.2-3.8c2.2-3.3,1.8-8.4-1.1-14c-3.3-6.5-9.9-13.6-16.6-13.9l-59-7.9c0.4-3.5,1.6-6.9,3.4-9.5l24-27.5l0.1-0.1h240.5
		l0.1,0.1l24,27.5C346.2,200,347.4,203.4,347.7,206.9z"/>
	<path class="st1" d="M147,245.8l53.1,12.2l53.1-12.2v-19.9H147V245.8z M152.8,231.6h94.6v9.5l-47.3,10.9l-47.3-10.9V231.6z"/>
</g>
<g class="st2">
	<g class="st3">
		<path class="st1" d="M70.8,294.3c-27.7-2.3-35.9-8.1-35.9-11.5v-23.8c0-9.8,3.9-19.1,10.5-24.7c16.4-14,33.6-21.1,51-21.1
			c4.3,0,8.4-0.8,12.2-2.1c2.9-1.8,5.9-3.5,8.8-5.1c1.2-0.6,2.3-1.2,3.5-1.8c0.8-0.4,1.7-0.9,2.5-1.3c-0.1-0.1-0.2-0.3-0.4-0.5
			c-2.3-2.5-4.3-5.2-6.3-8c-5.6,5.2-12.6,8.4-20.4,8.4c-21.1,0-35.9-23.8-35.9-45.1c0-20.3,16.1-36.9,35.9-36.9
			c3.4,0,6.7,0.5,9.8,1.4c1.3-3.2,2.8-6.4,4.5-9.3c-4.5-1.5-9.3-2.3-14.3-2.3c-25.4,0-46.1,21.2-46.1,47.2
			c0,18.4,9.3,38.2,24.3,48.4c-12.3,3.7-24.2,10.5-35.8,20.3c-8.9,7.6-14.1,19.7-14.1,32.5v23.8c0,4.9,0,18.3,46.6,21.8
			c-0.3-1.7-0.5-3.4-0.5-5.2V294.3z"/>
		<path class="st1" d="M297.6,226.5L297.6,226.5c-11.5-9.9-23.5-16.6-35.8-20.3c14.9-10.2,24.3-30,24.3-48.4
			c0-26-20.7-47.2-46.1-47.2c-5,0-9.8,0.8-14.3,2.3c1.7,3,3.3,6.1,4.5,9.3c3.1-0.9,6.4-1.4,9.8-1.4c19.8,0,35.9,16.6,35.9,36.9
			c0,21.3-14.7,45.1-35.9,45.1c-7.8,0-14.7-3.3-20.4-8.4c-1.9,2.8-4,5.5-6.3,8c-0.1,0.1-0.2,0.3-0.4,0.5c0.8,0.4,1.7,0.9,2.5,1.3
			c1.2,0.6,2.3,1.2,3.5,1.8c3,1.6,5.9,3.2,8.8,5.1c3.8,1.3,7.9,2.1,12.2,2.1c17.4,0,34.6,7.1,51,21.1c6.6,5.6,10.5,14.9,10.5,24.7
			v23.8c0,3.4-8.2,9.2-35.9,11.5v5.1c0,1.8-0.2,3.5-0.5,5.2c46.6-3.5,46.6-17,46.6-21.8v-23.8C311.7,246.3,306.4,234.1,297.6,226.5z
			"/>
		<path class="st1" d="M238.3,231.5L238.3,231.5c-14.7-12.5-30-20.9-45.7-25.2c19.6-11.8,31.9-36.7,31.9-59.6
			c0-31.2-25.3-56.5-56.4-56.5s-56.4,25.3-56.4,56.5c0,23,12.3,47.8,31.9,59.6C128,210.6,112.7,219,98,231.5
			c-10.6,9-17,23.6-17,38.9v29c0,6.6,0,26.6,87.2,26.6s87.2-20,87.2-26.6v-29C255.3,255.1,249,240.5,238.3,231.5z M122,146.7
			c0-25.5,20.7-46.2,46.1-46.2s46.1,20.7,46.1,46.2c0,26.6-19,56.3-46.1,56.3S122,173.3,122,146.7z M245.1,299.4
			c0,8.1-23.8,16.3-76.9,16.3s-76.9-8.2-76.9-16.3v-29c0-12.3,5-24,13.4-31.1c20.4-17.3,41.8-26.1,63.5-26.1s43.1,8.8,63.5,26.1
			c8.4,7.1,13.4,18.7,13.4,31.1V299.4z"/>
	</g>
	<path class="st4" d="M336.6,77c-28.2,0-51.1,17.2-51.1,38.4c0,11.4,6.6,21.6,17.1,28.7c-1,5.4-2.8,11.8-6.2,17
		c4.5,0,15.9-5.3,23.9-9.3c5.1,1.3,10.6,2,16.3,2c28.2,0,51.1-17.2,51.1-38.4C387.7,94.2,364.9,77,336.6,77z M361.1,117.7
		c-0.2,0.7-0.5,1.5-1,2.3c-0.9,1.7-2.2,3.3-3.7,4.6c-7.2,7.5-19.8,15.9-19.8,15.9s-12.7-8.4-19.8-15.9c-1.5-1.3-2.7-2.8-3.7-4.6
		c-0.5-0.8-0.8-1.6-1-2.3c-0.5-1.5-0.8-3.2-0.8-4.9c0-8.5,6.9-15.4,15.3-15.4c5.7,0,9.9,6.2,9.9,10.3c0-4.1,2.1-10.3,9.9-10.3
		c8.5,0,15.3,6.9,15.3,15.4C361.9,114.6,361.6,116.2,361.1,117.7z"/>
</g>
<g class="st2">
	<g class="st3">
		<path class="st1" d="M326.1,90l-16.1-16.1c-10.5-10.5-28.2-11.1-39.4-1.4L242.4,97c-0.4,0.3-0.7,0.7-0.9,1.1L213.9,144l-17.7,5.9
			c-1.5,0.5-2.6,1.7-3,3.3c-0.4,1.5,0.1,3.1,1.2,4.3l48.2,48.2c0.9,0.9,2,1.3,3.2,1.3c0.3,0,0.7,0,1-0.1c1.5-0.4,2.8-1.5,3.3-3
			l5.9-17.7l46.5-28.1c0.4-0.2,0.8-0.6,1.1-0.9l23.9-27.7C337.3,118.1,336.6,100.5,326.1,90L326.1,90z M320.7,123.4l-23.5,27.2
			l-47.3,28.6c-0.9,0.6-1.6,1.4-2,2.5l-4.1,12.3L233,183.1c0,0,0,0,0,0L217,167c0,0,0,0,0,0l-10.9-10.9l12.3-4.1c1-0.3,1.9-1,2.5-2
			l28-46.7l27.7-24c7.7-6.7,19.8-6.3,27,0.9l16.1,16.1C326.9,103.6,327.4,115.7,320.7,123.4L320.7,123.4z M320.7,123.4"/>
		<path class="st1" d="M313.3,248.1c-13.3-13.3-33-18-50.7-12.2L166,139.3c5.8-17.8,1.1-37.4-12.2-50.7c-14-14-35.1-18.4-53.6-11.2
			c-1.4,0.6-2.5,1.8-2.8,3.3c-0.3,1.5,0.2,3.1,1.2,4.1l28.9,28.9L108.3,133l-28.9-28.9c-1.1-1.1-2.6-1.5-4.1-1.2
			c-1.5,0.3-2.7,1.4-3.3,2.8c-7.2,18.5-2.9,39.5,11.2,53.6c13.3,13.3,33,18,50.7,12.2l36.1,36.1l-44.9,44.9l-28.6,16
			c-0.8,0.4-1.4,1.1-1.8,1.9l-12.8,25.7c-0.9,1.7-0.5,3.9,0.8,5.2l16.1,16.1c0.9,0.9,2,1.3,3.2,1.3c0.7,0,1.4-0.2,2-0.5l25.7-12.8
			c0.8-0.4,1.5-1.1,1.9-1.8l16-28.6l44.9-44.9l37.9,37.9c-5.8,17.8-1.1,37.4,12.2,50.7c9.5,9.6,22.3,14.6,35.3,14.6
			c6.1,0,12.3-1.1,18.2-3.4c1.4-0.6,2.5-1.8,2.8-3.3c0.3-1.5-0.2-3.1-1.2-4.1l-28.9-28.9l19.3-19.3l28.9,28.9
			c1.1,1.1,2.6,1.5,4.1,1.2c1.5-0.3,2.7-1.4,3.3-2.8C331.7,283.1,327.3,262.1,313.3,248.1L313.3,248.1z M140.7,269
			c-0.3,0.3-0.5,0.6-0.8,1l-15.6,27.9l-21.5,10.8l-11.4-11.4l10.8-21.5l27.9-15.6c0.4-0.2,0.7-0.5,1-0.8l45.4-45.4l9.6,9.6
			L140.7,269z M318,291.4l-26.7-26.7c-1.8-1.8-4.6-1.8-6.4,0l-25.7,25.7c-0.9,0.9-1.3,2-1.3,3.2s0.5,2.4,1.3,3.2l26.7,26.7
			c-13.2,2.6-27.1-1.4-36.9-11.2c-11.5-11.5-15.1-28.7-9.2-43.8c0.7-1.7,0.3-3.6-1-4.9L138.3,163c-0.9-0.9-2-1.3-3.2-1.3
			c-0.6,0-1.1,0.1-1.7,0.3c-15.1,5.9-32.3,2.3-43.8-9.2c-9.8-9.8-13.8-23.6-11.2-36.9l26.7,26.7c1.8,1.8,4.6,1.8,6.4,0l25.7-25.7
			c1.8-1.8,1.8-4.6,0-6.4l-26.7-26.7c13.2-2.6,27.1,1.4,36.9,11.2c11.5,11.5,15.1,28.7,9.2,43.8c-0.7,1.7-0.3,3.6,1,4.9l100.6,100.6
			c1.3,1.3,3.2,1.7,4.9,1c15.1-5.9,32.3-2.3,43.8,9.2C316.6,264.2,320.7,278.1,318,291.4L318,291.4z M318,291.4"/>
	</g>
</g>
</svg>
