<?xml version="1.0" encoding="utf-8"?>
<!-- Generator: Adobe Illustrator 22.0.1, SVG Export Plug-In . SVG Version: 6.00 Build 0)  -->
<svg version="1.1" id="Layer_1" xmlns="http://www.w3.org/2000/svg" xmlns:xlink="http://www.w3.org/1999/xlink" x="0px" y="0px"
	 viewBox="0 0 873 400" style="enable-background:new 0 0 873 400;" xml:space="preserve">
<style type="text/css">
	.st0{display:none;fill:none;stroke:#333333;stroke-miterlimit:10;}
	.st1{display:none;}
	.st2{display:inline;fill:#333333;}
	.st3{display:inline;}
	.st4{fill:#333333;}
	.st5{fill:#313131;}
	.st6{fill:#C82127;}
</style>
<rect x="1" y="-0.5" class="st0" width="400" height="400"/>
<g class="st1">
	<path class="st2" d="M350.6,138.5l-10-0.7c-4.3-0.3-8.5,1.2-11.7,4.1c-2.1,1.9-3.5,4.3-4.3,7l-18.7-48l-0.3-0.7
		c-9.5-17.4-83.4-18.7-105.9-18.7c0,0,0,0,0,0c-28.5,0-95.8,1.8-105.1,18.7l-19,48.7c-0.8-2.7-2.2-5.1-4.3-7
		c-3.1-2.9-7.4-4.4-11.7-4.1l-10,0.7c-11,0.8-19.6,10-19.6,21c0,5.7,4.6,10.3,10.3,10.3h24.3L46.9,190l-0.3,0.4
		c-3.8,5.1-5.9,11.9-5.9,18.6l0,34.6l0,43.3l5.2,31.5h60.6l2.9-27.2h181.6l2.8,27.2h60.6l5.1-30.5l0.1-44.2V209
		c0-6.7-2.2-13.5-5.9-18.6l-17.9-20.6H360c5.7,0,10.3-4.6,10.3-10.3C370.2,148.5,361.6,139.3,350.6,138.5z M360,164h-30.2v-10.8
		c0-2.7,1.1-5.3,3.1-7.1c2-1.8,4.6-2.8,7.3-2.6l10,0.7c8,0.6,14.2,7.3,14.2,15.3C364.4,162,362.4,164,360,164z M104.8,105.5
		c3.5-4.9,34.1-12.1,89.9-12.5c59.7-0.5,96.5,6.9,100.6,12.5l22.8,58.4h-236L104.8,105.5z M35.8,159.5c0-8,6.2-14.7,14.2-15.3
		l10-0.7c0.2,0,0.5,0,0.7,0c2.5,0,4.8,0.9,6.6,2.6c2,1.8,3.1,4.4,3.1,7.1V164H40.2C37.8,164,35.8,162,35.8,159.5z M52.3,212.7
		l58.7,7.9c3.7,0.2,9,4.9,12,10.8c2,4,2.2,7,1.4,8.2c-0.7,1.1-2.6,1.2-4.2,1.1H52.3V212.7z M347.9,240.7l-68,0
		c-1.4,0.1-3.3-0.1-4-1.1c-0.8-1.2-0.7-4.2,1.4-8.2c3-5.9,8.2-10.6,12.2-10.8l58.4-7.9V240.7z M347.7,206.9l-58.8,7.9
		c-6.9,0.4-13.6,7.5-16.8,14c-2.8,5.6-3.2,10.7-1.1,14c1.1,1.8,3.5,3.8,8.1,3.8c0.3,0,0.6,0,0.9,0l67.9,0v39.9l-3.4,20.4h-40.3
		l-1.6-15.6h20.9v-11.6h-22.1h-1.6H100.5h-1.6H76.8v11.6h20.9L96,306.8H55.7l-3.4-20.4l0-39.9l67.7,0c0.3,0,0.7,0,1,0
		c4.7,0,7.1-2,8.2-3.8c2.2-3.3,1.8-8.4-1.1-14c-3.3-6.5-9.9-13.6-16.6-13.9l-59-7.9c0.4-3.5,1.6-6.9,3.4-9.5l24-27.5l0.1-0.1h240.5
		l0.1,0.1l24,27.5C346.2,200,347.4,203.4,347.7,206.9z"/>
	<path class="st2" d="M147,245.8l53.1,12.2l53.1-12.2v-19.9H147V245.8z M152.8,231.6h94.6v9.5l-47.3,10.9l-47.3-10.9V231.6z"/>
</g>
<g class="st1">
	<g class="st3">
		<path class="st4" d="M70.8,294.3c-27.7-2.3-35.9-8.1-35.9-11.5v-23.8c0-9.8,3.9-19.1,10.5-24.7c16.4-14,33.6-21.1,51-21.1
			c4.3,0,8.4-0.8,12.2-2.1c2.9-1.8,5.9-3.5,8.8-5.1c1.2-0.6,2.3-1.2,3.5-1.8c0.8-0.4,1.7-0.9,2.5-1.3c-0.1-0.1-0.2-0.3-0.4-0.5
			c-2.3-2.5-4.3-5.2-6.3-8c-5.6,5.2-12.6,8.4-20.4,8.4c-21.1,0-35.9-23.8-35.9-45.1c0-20.3,16.1-36.9,35.9-36.9
			c3.4,0,6.7,0.5,9.8,1.4c1.3-3.2,2.8-6.4,4.5-9.3c-4.5-1.5-9.3-2.3-14.3-2.3c-25.4,0-46.1,21.2-46.1,47.2
			c0,18.4,9.3,38.2,24.3,48.4c-12.3,3.7-24.2,10.5-35.8,20.3c-8.9,7.6-14.1,19.7-14.1,32.5v23.8c0,4.9,0,18.3,46.6,21.8
			c-0.3-1.7-0.5-3.4-0.5-5.2V294.3z"/>
		<path class="st4" d="M297.6,226.5L297.6,226.5c-11.5-9.9-23.5-16.6-35.8-20.3c14.9-10.2,24.3-30,24.3-48.4
			c0-26-20.7-47.2-46.1-47.2c-5,0-9.8,0.8-14.3,2.3c1.7,3,3.3,6.1,4.5,9.3c3.1-0.9,6.4-1.4,9.8-1.4c19.8,0,35.9,16.6,35.9,36.9
			c0,21.3-14.7,45.1-35.9,45.1c-7.8,0-14.7-3.3-20.4-8.4c-1.9,2.8-4,5.5-6.3,8c-0.1,0.1-0.2,0.3-0.4,0.5c0.8,0.4,1.7,0.9,2.5,1.3
			c1.2,0.6,2.3,1.2,3.5,1.8c3,1.6,5.9,3.2,8.8,5.1c3.8,1.3,7.9,2.1,12.2,2.1c17.4,0,34.6,7.1,51,21.1c6.6,5.6,10.5,14.9,10.5,24.7
			v23.8c0,3.4-8.2,9.2-35.9,11.5v5.1c0,1.8-0.2,3.5-0.5,5.2c46.6-3.5,46.6-17,46.6-21.8v-23.8C311.7,246.3,306.4,234.1,297.6,226.5z
			"/>
		<path class="st4" d="M238.3,231.5L238.3,231.5c-14.7-12.5-30-20.9-45.7-25.2c19.6-11.8,31.9-36.7,31.9-59.6
			c0-31.2-25.3-56.5-56.4-56.5s-56.4,25.3-56.4,56.5c0,23,12.3,47.8,31.9,59.6C128,210.6,112.7,219,98,231.5
			c-10.6,9-17,23.6-17,38.9v29c0,6.6,0,26.6,87.2,26.6s87.2-20,87.2-26.6v-29C255.3,255.1,249,240.5,238.3,231.5z M122,146.7
			c0-25.5,20.7-46.2,46.1-46.2s46.1,20.7,46.1,46.2c0,26.6-19,56.3-46.1,56.3S122,173.3,122,146.7z M245.1,299.4
			c0,8.1-23.8,16.3-76.9,16.3s-76.9-8.2-76.9-16.3v-29c0-12.3,5-24,13.4-31.1c20.4-17.3,41.8-26.1,63.5-26.1s43.1,8.8,63.5,26.1
			c8.4,7.1,13.4,18.7,13.4,31.1V299.4z"/>
	</g>
	<path class="st2" d="M336.6,77c-28.2,0-51.1,17.2-51.1,38.4c0,11.4,6.6,21.6,17.1,28.7c-1,5.4-2.8,11.8-6.2,17
		c4.5,0,15.9-5.3,23.9-9.3c5.1,1.3,10.6,2,16.3,2c28.2,0,51.1-17.2,51.1-38.4C387.7,94.2,364.9,77,336.6,77z M361.1,117.7
		c-0.2,0.7-0.5,1.5-1,2.3c-0.9,1.7-2.2,3.3-3.7,4.6c-7.2,7.5-19.8,15.9-19.8,15.9s-12.7-8.4-19.8-15.9c-1.5-1.3-2.7-2.8-3.7-4.6
		c-0.5-0.8-0.8-1.6-1-2.3c-0.5-1.5-0.8-3.2-0.8-4.9c0-8.5,6.9-15.4,15.3-15.4c5.7,0,9.9,6.2,9.9,10.3c0-4.1,2.1-10.3,9.9-10.3
		c8.5,0,15.3,6.9,15.3,15.4C361.9,114.6,361.6,116.2,361.1,117.7z"/>
</g>
<g class="st1">
	<g class="st3">
		<path class="st4" d="M326.1,90l-16.1-16.1c-10.5-10.5-28.2-11.1-39.4-1.4L242.4,97c-0.4,0.3-0.7,0.7-0.9,1.1L213.9,144l-17.7,5.9
			c-1.5,0.5-2.6,1.7-3,3.3c-0.4,1.5,0.1,3.1,1.2,4.3l48.2,48.2c0.9,0.9,2,1.3,3.2,1.3c0.3,0,0.7,0,1-0.1c1.5-0.4,2.8-1.5,3.3-3
			l5.9-17.7l46.5-28.1c0.4-0.2,0.8-0.6,1.1-0.9l23.9-27.7C337.3,118.1,336.6,100.5,326.1,90L326.1,90z M320.7,123.4l-23.5,27.2
			l-47.3,28.6c-0.9,0.6-1.6,1.4-2,2.5l-4.1,12.3L233,183.1c0,0,0,0,0,0L217,167c0,0,0,0,0,0l-10.9-10.9l12.3-4.1c1-0.3,1.9-1,2.5-2
			l28-46.7l27.7-24c7.7-6.7,19.8-6.3,27,0.9l16.1,16.1C326.9,103.6,327.4,115.7,320.7,123.4L320.7,123.4z M320.7,123.4"/>
		<path class="st4" d="M313.3,248.1c-13.3-13.3-33-18-50.7-12.2L166,139.3c5.8-17.8,1.1-37.4-12.2-50.7c-14-14-35.1-18.4-53.6-11.2
			c-1.4,0.6-2.5,1.8-2.8,3.3c-0.3,1.5,0.2,3.1,1.2,4.1l28.9,28.9L108.3,133l-28.9-28.9c-1.1-1.1-2.6-1.5-4.1-1.2
			c-1.5,0.3-2.7,1.4-3.3,2.8c-7.2,18.5-2.9,39.5,11.2,53.6c13.3,13.3,33,18,50.7,12.2l36.1,36.1l-44.9,44.9l-28.6,16
			c-0.8,0.4-1.4,1.1-1.8,1.9l-12.8,25.7c-0.9,1.7-0.5,3.9,0.8,5.2l16.1,16.1c0.9,0.9,2,1.3,3.2,1.3c0.7,0,1.4-0.2,2-0.5l25.7-12.8
			c0.8-0.4,1.5-1.1,1.9-1.8l16-28.6l44.9-44.9l37.9,37.9c-5.8,17.8-1.1,37.4,12.2,50.7c9.5,9.6,22.3,14.6,35.3,14.6
			c6.1,0,12.3-1.1,18.2-3.4c1.4-0.6,2.5-1.8,2.8-3.3c0.3-1.5-0.2-3.1-1.2-4.1l-28.9-28.9l19.3-19.3l28.9,28.9
			c1.1,1.1,2.6,1.5,4.1,1.2c1.5-0.3,2.7-1.4,3.3-2.8C331.7,283.1,327.3,262.1,313.3,248.1L313.3,248.1z M140.7,269
			c-0.3,0.3-0.5,0.6-0.8,1l-15.6,27.9l-21.5,10.8l-11.4-11.4l10.8-21.5l27.9-15.6c0.4-0.2,0.7-0.5,1-0.8l45.4-45.4l9.6,9.6
			L140.7,269z M318,291.4l-26.7-26.7c-1.8-1.8-4.6-1.8-6.4,0l-25.7,25.7c-0.9,0.9-1.3,2-1.3,3.2s0.5,2.4,1.3,3.2l26.7,26.7
			c-13.2,2.6-27.1-1.4-36.9-11.2c-11.5-11.5-15.1-28.7-9.2-43.8c0.7-1.7,0.3-3.6-1-4.9L138.3,163c-0.9-0.9-2-1.3-3.2-1.3
			c-0.6,0-1.1,0.1-1.7,0.3c-15.1,5.9-32.3,2.3-43.8-9.2c-9.8-9.8-13.8-23.6-11.2-36.9l26.7,26.7c1.8,1.8,4.6,1.8,6.4,0l25.7-25.7
			c1.8-1.8,1.8-4.6,0-6.4l-26.7-26.7c13.2-2.6,27.1,1.4,36.9,11.2c11.5,11.5,15.1,28.7,9.2,43.8c-0.7,1.7-0.3,3.6,1,4.9l100.6,100.6
			c1.3,1.3,3.2,1.7,4.9,1c15.1-5.9,32.3-2.3,43.8,9.2C316.6,264.2,320.7,278.1,318,291.4L318,291.4z M318,291.4"/>
	</g>
</g>
<g class="st1">
	<g class="st3">
		<g>
			<path class="st5" d="M261,287.7c-2.7,0-5-2.2-5-5c0-17.3,0.8-19.8,3.3-25c1-2.1,2.3-4.6,3.9-10.2c9.3-30.8,9-57.6,9-57.9
				c0-2.7,2.1-5,4.9-5c0,0,0.1,0,0.1,0c2.7,0,4.9,2.2,5,4.9c0,1.1,0.4,28.5-9.4,60.9c-1.9,6.3-3.4,9.4-4.5,11.7
				c-1.7,3.4-2.3,4.7-2.3,20.6C266,285.5,263.8,287.7,261,287.7z"/>
		</g>
		<g>
			<path class="st5" d="M155,287.7c-2.7,0-5-2.2-5-5c0-4.6,0.1-8.1,0.2-11c0.3-9.5,0.3-10.3-4.3-17.1
				c-20.5-30.3-28.1-47.8-28.1-64.6c0-25.7,2-39.5,6.8-47.6c5.3-8.8,12.3-10.2,16-10.3c5.5,0,10.9,2.6,13.7,6.8
				c5,7.7,7.1,24.3,9,50.3c0.2,2.7-1.9,5.1-4.6,5.3c-2.8,0.2-5.1-1.9-5.3-4.6c-1-13.4-2.8-38.5-7.4-45.6c-0.7-1.1-2.8-2.5-5.2-2.3
				c-2.9,0-5.6,1.9-7.7,5.5c-3.8,6.3-5.4,19.4-5.4,42.5c0,12.3,4.4,26.5,26.4,59c6.1,9.1,6.3,12.2,6,22.9c-0.1,2.8-0.2,6.3-0.2,10.7
				C160,285.5,157.8,287.7,155,287.7z"/>
		</g>
	</g>
	<g class="st3">
		<path class="st5" d="M323.5,194.6h-162c-2.7,0-5-2.2-5-5c0-2.7,2.2-5,5-5h157V78.8H83.4v105.8h39.5c2.7,0,5,2.2,5,5
			c0,2.7-2.2,5-5,5H78.4c-2.7,0-5-2.2-5-5V73.9c0-2.7,2.2-5,5-5h245.1c2.7,0,5,2.2,5,5v115.7C328.5,192.3,326.3,194.6,323.5,194.6z"
			/>
	</g>
	<g class="st3">
		<path class="st5" d="M297.8,114.4c-2.7,0-5-2.2-5-5V98.9c0-2.7,2.2-5,5-5s5,2.2,5,5v10.6C302.7,112.2,300.5,114.4,297.8,114.4z"/>
	</g>
	<g class="st3">
		<path class="st5" d="M102.7,173.1c-2.7,0-5-2.2-5-5v-10.6c0-2.7,2.2-5,5-5s5,2.2,5,5v10.6C107.7,170.9,105.4,173.1,102.7,173.1z"
			/>
	</g>
	<g class="st3">
		<path class="st5" d="M187.2,219.6c-1.8,0-3.5-1-4.4-2.7c-6.5-12.5-26.3-22.8-26.5-22.9c-2.4-1.3-3.4-4.2-2.1-6.7
			c1.3-2.4,4.2-3.4,6.7-2.1c0.9,0.5,22.9,11.8,30.8,27.2c1.3,2.4,0.3,5.4-2.1,6.7C188.7,219.5,187.9,219.6,187.2,219.6z"/>
	</g>
	<g class="st3">
		<path class="st5" d="M202.3,168.7c-21.3,0-38.6-17.3-38.6-38.6s17.3-38.6,38.6-38.6s38.6,17.3,38.6,38.6S223.6,168.7,202.3,168.7z
			 M202.3,101.3c-15.8,0-28.7,12.9-28.7,28.7s12.9,28.7,28.7,28.7s28.7-12.9,28.7-28.7S218.2,101.3,202.3,101.3z"/>
	</g>
	<g class="st3">
		<path class="st5" d="M271,330.1H143.7c-2.7,0-5-2.2-5-5v-42.4c0-2.7,2.2-5,5-5H271c2.7,0,5,2.2,5,5v42.4
			C276,327.9,273.7,330.1,271,330.1z M148.6,320.2H266v-32.5H148.6V320.2z"/>
	</g>
</g>
<path class="st6" d="M198.7,232.1c-8-7.9-18.1-7.9-26,0c-6.1,6-12.2,12.1-18.2,18.2c-1.6,1.7-3,2-5,0.9c-3.9-2.1-8.1-3.9-11.9-6.2
	c-17.6-11.1-32.4-25.4-45.5-41.4c-6.5-8-12.3-16.5-16.3-26.1c-0.8-1.9-0.7-3.2,0.9-4.8c6.1-5.9,12-11.9,18-18
	c8.3-8.4,8.3-18.2-0.1-26.6c-4.8-4.8-9.5-9.5-14.3-14.3c-4.9-4.9-9.8-9.9-14.7-14.7c-8-7.8-18.1-7.8-26,0.1
	c-6.1,6-12,12.2-18.3,18.2c-5.8,5.5-8.7,12.2-9.3,20c-1,12.7,2.1,24.8,6.5,36.5c9,24.2,22.7,45.8,39.3,65.5
	c22.5,26.7,49.3,47.8,80.6,63.1c14.1,6.9,28.7,12.1,44.7,13c10.9,0.6,20.5-2.1,28.1-10.7c5.2-5.8,11.1-11.2,16.6-16.7
	c8.2-8.3,8.2-18.3,0.1-26.5C218.3,251.6,208.5,241.8,198.7,232.1L198.7,232.1z M198.7,232.1"/>
<path class="st6" d="M189,191.4l18.9-3.2c-3-17.3-11.2-33-23.6-45.5c-13.1-13.1-29.8-21.4-48.1-24l-2.7,19
	c14.2,2,27.1,8.4,37.2,18.6C180.4,165.8,186.7,178,189,191.4L189,191.4z M189,191.4"/>
<path class="st6" d="M218.5,109.3c-21.8-21.8-49.4-35.5-79.8-39.8l-2.7,19c26.3,3.7,50.1,15.6,68.9,34.4
	c17.8,17.8,29.6,40.4,33.8,65.2l18.9-3.2C252.7,156.1,239.2,130,218.5,109.3L218.5,109.3z M218.5,109.3"/>
<g>
	<path class="st6" d="M319.4,210V173c0-1.7-0.4-3.3-1.1-4.7c-0.7-1.4-1.7-2.6-2.9-3.6l-9.8,7.3l-9.7-7.6c-1,0.8-1.9,1.7-2.8,2.8
		c-0.9,1.1-1.6,2.4-2.3,3.9c-0.7,1.5-1.2,3.1-1.6,4.9c-0.4,1.8-0.6,3.8-0.6,6c0,2.6,0.3,5,0.9,7c0.6,2.1,1.5,3.9,2.6,5.3
		c1.1,1.5,2.4,2.6,3.8,3.4c1.5,0.8,3,1.2,4.7,1.2c0.5,0,0.9,0,1.4-0.1s0.9-0.3,1.5-0.6c0.5-0.3,1.1-0.7,1.7-1.2
		c0.6-0.5,1.3-1.2,2-2.1l8.1,8.2c-1.4,1.4-2.7,2.6-3.9,3.6s-2.4,1.7-3.6,2.2c-1.2,0.6-2.3,0.9-3.5,1.2c-1.2,0.2-2.4,0.3-3.7,0.3
		c-2.7,0-5.1-0.3-7.4-1c-2.2-0.7-4.3-1.7-6.1-2.9c-1.8-1.3-3.4-2.8-4.8-4.5c-1.4-1.8-2.5-3.7-3.4-5.8c-0.9-2.1-1.6-4.4-2.1-6.7
		c-0.5-2.4-0.7-4.9-0.7-7.4c0-4,0.5-7.7,1.5-11c1-3.3,2.4-6.3,4.2-8.9s4.1-4.8,6.7-6.7c2.6-1.9,5.6-3.4,8.9-4.5l8.2,6.3l8.1-6.3
		c2.7,1,5.2,2.2,7.4,3.6s4.1,3,5.7,4.8c1.6,1.8,2.8,3.8,3.6,6.1c0.8,2.2,1.3,4.7,1.3,7.4V210H319.4z"/>
	<path class="st6" d="M282.1,144.6v-10.9h49.7v10.9H282.1z"/>
	<path class="st6" d="M382.6,210.1v-35.7c0-1.9-0.4-3.6-1.3-5c-0.9-1.5-2-2.7-3.4-3.7c-1.4-1-3-1.7-4.8-2.2
		c-1.8-0.5-3.6-0.6-5.5-0.5s-3.7,0.6-5.5,1.4c-1.8,0.8-3.4,2-4.8,3.6c-1.4,1.6-2.5,3.5-3.4,5.9c-0.9,2.4-1.3,5.2-1.3,8.4
		c0,2.6,0.3,4.9,0.9,7s1.5,3.8,2.6,5.3c1.1,1.5,2.4,2.6,3.9,3.3c1.5,0.8,3.1,1.2,4.9,1.2c0.5,0,0.9,0,1.4-0.1
		c0.4-0.1,0.9-0.2,1.4-0.5c0.5-0.2,1-0.6,1.5-1s1.1-1,1.8-1.6l7.9,8.1c-1.3,1.3-2.5,2.4-3.6,3.3s-2.3,1.5-3.4,2.1
		c-1.1,0.5-2.2,0.9-3.4,1.1c-1.1,0.2-2.3,0.3-3.6,0.3c-4.1,0-7.8-0.8-10.9-2.3c-3.1-1.5-5.7-3.5-7.8-6.1c-2.1-2.6-3.6-5.6-4.7-9
		c-1-3.4-1.6-7.1-1.6-10.9c0-3.6,0.4-6.8,1.2-9.7c0.8-2.9,1.9-5.5,3.2-7.8c1.4-2.3,3-4.2,4.9-5.9c1.9-1.7,3.9-3,6.1-4.1
		s4.5-1.9,6.9-2.4c2.4-0.5,4.8-0.8,7.2-0.8c2.1,0,4.3,0.2,6.4,0.7c2.1,0.4,4.1,1.1,6.1,2s3.7,2,5.4,3.3s3.1,2.8,4.3,4.5
		c1.2,1.7,2.1,3.5,2.8,5.6c0.7,2.1,1,4.3,1,6.7v35.9H382.6z"/>
	<path class="st6" d="M446.5,210V173c0-1.7-0.4-3.3-1.1-4.7c-0.7-1.4-1.7-2.6-2.9-3.6l-9.8,7.3l-9.7-7.6c-1,0.8-1.9,1.7-2.8,2.8
		c-0.9,1.1-1.6,2.4-2.3,3.9c-0.7,1.5-1.2,3.1-1.6,4.9c-0.4,1.8-0.6,3.8-0.6,6c0,2.6,0.3,5,0.9,7c0.6,2.1,1.5,3.9,2.6,5.3
		c1.1,1.5,2.4,2.6,3.8,3.4c1.5,0.8,3,1.2,4.7,1.2c0.5,0,0.9,0,1.4-0.1s0.9-0.3,1.5-0.6c0.5-0.3,1.1-0.7,1.7-1.2
		c0.6-0.5,1.3-1.2,2-2.1l8.1,8.2c-1.4,1.4-2.7,2.6-3.9,3.6s-2.4,1.7-3.6,2.2c-1.2,0.6-2.3,0.9-3.5,1.2c-1.2,0.2-2.4,0.3-3.7,0.3
		c-2.7,0-5.1-0.3-7.4-1c-2.2-0.7-4.3-1.7-6.1-2.9c-1.8-1.3-3.4-2.8-4.8-4.5c-1.4-1.8-2.5-3.7-3.4-5.8c-0.9-2.1-1.6-4.4-2.1-6.7
		c-0.5-2.4-0.7-4.9-0.7-7.4c0-4,0.5-7.7,1.5-11c1-3.3,2.4-6.3,4.2-8.9s4.1-4.8,6.7-6.7c2.6-1.9,5.6-3.4,8.9-4.5l8.2,6.3l8.1-6.3
		c2.7,1,5.2,2.2,7.4,3.6s4.1,3,5.7,4.8c1.6,1.8,2.8,3.8,3.6,6.1c0.8,2.2,1.3,4.7,1.3,7.4V210H446.5z"/>
	<path class="st6" d="M447,144.7v-22.9h11.9v22.8L447,144.7z"/>
	<path class="st6" d="M524.4,181c0,2.7-0.3,5.2-0.9,7.7c-0.6,2.5-1.5,4.9-2.6,7.1c-1.1,2.2-2.5,4.3-4.2,6.1
		c-1.7,1.9-3.5,3.5-5.6,4.8c-2.1,1.3-4.4,2.4-6.9,3.1c-2.5,0.8-5.2,1.1-8.1,1.1c-3,0-5.9-0.4-8.5-1.3c-2.7-0.8-5.1-2-7.3-3.5
		c-2.2-1.5-4.2-3.3-5.9-5.3c-1.7-2.1-3.1-4.3-4.2-6.8c-1.1-2.5-1.9-5.1-2.3-7.9c-0.4-2.8-0.5-5.6-0.2-8.6h30.6v11.3H481
		c0.6,1.5,1.4,3,2.4,4.2s2.1,2.4,3.4,3.3c1.3,0.9,2.7,1.7,4.3,2.2c1.6,0.5,3.2,0.8,5,0.8c2.3,0,4.5-0.5,6.5-1.4
		c2-0.9,3.7-2.2,5.2-3.9c1.5-1.6,2.6-3.6,3.4-5.8c0.8-2.3,1.3-4.7,1.3-7.4c0-2.7-0.4-5.2-1.2-7.5c-0.8-2.3-1.9-4.2-3.4-5.9
		c-1.5-1.6-3.2-2.9-5.2-3.8c-2-0.9-4.2-1.4-6.6-1.4c-1.6,0-3.2,0.2-4.8,0.7c-1.5,0.5-3,1.2-4.4,2.2c-1.4,1-2.7,2.3-3.9,3.8
		c-1.2,1.6-2.3,3.4-3.3,5.6l-11.1-4.5c1.4-3.1,3-5.8,4.9-8.2c1.9-2.4,4-4.4,6.4-6.1s4.9-2.9,7.6-3.8c2.7-0.9,5.6-1.3,8.7-1.3
		c3,0,5.7,0.4,8.3,1.1c2.6,0.8,4.9,1.8,7,3.2c2.1,1.3,4,3,5.6,4.8c1.6,1.9,3,3.9,4.1,6.2c1.1,2.2,1.9,4.6,2.5,7.1
		S524.4,178.3,524.4,181z"/>
	<path class="st6" d="M534.9,210v-57.7h12.4V210H534.9z"/>
	<path class="st6" d="M604.3,190c0,2.3-0.3,4.4-0.9,6.4c-0.6,1.9-1.5,3.7-2.5,5.2c-1.1,1.6-2.3,2.9-3.8,4.1c-1.5,1.2-3,2.1-4.7,2.9
		c-1.7,0.8-3.4,1.4-5.2,1.8s-3.6,0.6-5.4,0.6c-1.7,0-3.4-0.2-5.1-0.5s-3.4-0.9-5-1.6c-1.6-0.7-3.1-1.6-4.6-2.7
		c-1.4-1.1-2.7-2.4-3.9-3.9c-1.1-1.5-2.1-3.3-2.9-5.3c-0.8-2-1.4-4.2-1.7-6.7l11.6-3.9c0.4,2.6,0.9,4.7,1.6,6.4c0.7,1.7,1.6,3,2.6,4
		c1,1,2.1,1.7,3.4,2.1c1.3,0.4,2.6,0.6,4,0.6c1.5,0,2.9-0.2,4.3-0.7s2.5-1.1,3.4-1.9c1-0.8,1.7-1.8,2.3-2.9c0.5-1.1,0.8-2.4,0.8-3.9
		c0-1.3-0.5-2.4-1.5-3.3c-1-0.9-2.7-1.7-5-2.3c-1.5-0.4-3.2-0.8-5.1-1.2c-1.9-0.4-3.8-0.8-5.7-1.3c-1.9-0.5-3.8-1.1-5.7-1.8
		c-1.8-0.7-3.5-1.6-4.9-2.6c-1.4-1-2.6-2.3-3.5-3.7c-0.9-1.5-1.3-3.2-1.3-5.2c0-2,0.3-3.8,0.9-5.4c0.6-1.6,1.4-3.1,2.4-4.4
		c1-1.3,2.2-2.4,3.6-3.4s2.8-1.8,4.4-2.4c1.6-0.6,3.2-1.1,4.8-1.4s3.3-0.5,4.9-0.5c1.5,0,2.9,0.1,4.5,0.3c1.5,0.2,3,0.6,4.5,1.1
		c1.5,0.5,2.9,1.2,4.3,2c1.4,0.8,2.7,1.8,4,3c1.2,1.2,2.4,2.6,3.4,4.2c1.1,1.6,2,3.4,2.8,5.5l-11.1,4.1c-0.7-1.7-1.5-3.1-2.4-4.2
		c-0.9-1.1-1.8-2-2.8-2.7c-1-0.7-2.1-1.1-3.3-1.4c-1.2-0.3-2.4-0.4-3.7-0.4c-1.5,0-2.9,0.2-4.1,0.5c-1.2,0.3-2.1,0.8-2.9,1.3
		c-0.8,0.6-1.3,1.2-1.7,1.9c-0.4,0.7-0.6,1.4-0.6,2.2c0,0.5,0.1,0.9,0.4,1.2c0.3,0.3,0.6,0.5,1.1,0.7c0.5,0.2,1,0.4,1.7,0.5
		s1.3,0.3,2.1,0.5c1.8,0.5,3.7,1,5.8,1.4s4.1,1,6.1,1.6c2,0.6,4,1.3,5.9,2.1c1.9,0.8,3.5,1.8,5,3.1c1.4,1.2,2.6,2.7,3.4,4.4
		C603.9,185.5,604.3,187.6,604.3,190z"/>
	<path class="st6" d="M651.8,210h-12.4v-36c0-7.4-3.6-11.1-10.8-11.1c-0.9,0-1.8,0.1-2.6,0.2c-0.9,0.2-1.7,0.4-2.6,0.8
		c-0.9,0.4-1.9,1-2.9,1.7c-1,0.7-2.1,1.7-3.3,2.8l-8.3-8.3c1.8-1.8,3.5-3.2,5.1-4.3c1.6-1.1,3.2-2,4.8-2.6c1.6-0.6,3.2-1.1,4.8-1.3
		c1.6-0.2,3.3-0.3,5.1-0.3c3.9,0,7.4,0.6,10.3,1.8c2.9,1.2,5.3,2.8,7.2,4.7c1.9,2,3.3,4.3,4.2,6.9c0.9,2.6,1.4,5.3,1.4,8.2V210z"/>
</g>
<g>
	<path class="st6" d="M323.2,270.9c0,2.9-0.2,5.8-0.7,8.7c-0.5,2.9-1.2,5.8-2.1,8.4s-2.1,5.2-3.5,7.6c-1.4,2.4-3.1,4.4-5,6.1
		c-1.9,1.7-4.1,3.1-6.5,4.1c-2.4,1-5.1,1.5-8,1.5c-2.9,0-5.6-0.5-8-1.5c-2.4-1-4.6-2.4-6.5-4.1c-1.9-1.7-3.6-3.8-5-6.1
		c-1.4-2.4-2.6-4.9-3.6-7.6s-1.7-5.5-2.1-8.4c-0.5-2.9-0.7-5.8-0.7-8.7s0.2-5.8,0.7-8.7c0.5-2.9,1.2-5.6,2.1-8.3
		c0.9-2.6,2.1-5.1,3.6-7.4s3.1-4.3,5-5.9c1.9-1.7,4.1-3,6.5-3.9c2.4-1,5.1-1.4,7.9-1.4s5.5,0.5,7.9,1.4c2.4,1,4.6,2.3,6.5,3.9
		c1.9,1.7,3.6,3.6,5,5.9c1.4,2.3,2.6,4.7,3.6,7.4c0.9,2.6,1.7,5.4,2.1,8.3C323,265.1,323.2,268,323.2,270.9z M310,270.9
		c0-2.2-0.2-4.3-0.5-6.3c-0.3-2-0.8-3.9-1.3-5.6c-0.6-1.7-1.3-3.3-2-4.7c-0.8-1.4-1.6-2.6-2.6-3.6c-0.9-1-1.9-1.7-3-2.3
		c-1-0.5-2.1-0.8-3.2-0.8c-1.6,0-3.2,0.6-4.7,1.8c-1.5,1.2-2.9,2.8-4.1,4.9c-1.2,2.1-2.1,4.5-2.9,7.3c-0.7,2.8-1.1,5.9-1.1,9.2
		c0,3.7,0.4,7.1,1.1,10c0.7,3,1.7,5.5,2.9,7.6c1.2,2.1,2.5,3.7,4.1,4.8c1.5,1.1,3.1,1.7,4.7,1.7c1.6,0,3.2-0.6,4.7-1.7
		c1.5-1.1,2.9-2.7,4-4.8s2.1-4.6,2.8-7.6C309.6,277.9,310,274.6,310,270.9z"/>
	<path class="st6" d="M329.4,285.7v-10.6h31.2v10.6H329.4z"/>
	<path class="st6" d="M416.4,257.8c0,1.7-0.2,3.3-0.6,4.8s-0.9,3.1-1.6,4.5c-0.7,1.4-1.5,2.8-2.3,4.2c-0.9,1.3-1.8,2.6-2.8,3.8
		c-1,1.2-2,2.3-3,3.4c-1,1.1-2,2.1-2.9,3l-12.7,12.6h25.7v12.2h-46.8v-9.2l23.6-23.3c1.3-1.3,2.6-2.7,3.9-4.1
		c1.3-1.4,2.4-2.8,3.3-4.2s1.7-2.8,2.3-4.1c0.6-1.3,0.9-2.6,0.9-3.8c0-1.4-0.3-2.7-0.8-4c-0.5-1.2-1.3-2.3-2.2-3.2
		c-1-0.9-2.1-1.6-3.3-2.1c-1.3-0.5-2.6-0.8-4.1-0.8c-1.4,0-2.8,0.3-4,0.8s-2.4,1.3-3.3,2.5c-0.9,1.1-1.7,2.6-2.2,4.5
		s-0.8,4.1-0.8,6.8h-13.2c0.1-3.1,0.4-5.9,1.1-8.4c0.6-2.5,1.5-4.8,2.6-6.8s2.4-3.7,3.8-5.2c1.5-1.5,3.1-2.7,4.8-3.6
		c1.7-0.9,3.5-1.7,5.5-2.1c1.9-0.5,3.9-0.7,5.8-0.7c2.2,0,4.3,0.3,6.3,0.8c2,0.5,3.9,1.3,5.6,2.2c1.7,1,3.3,2.1,4.8,3.4
		c1.4,1.3,2.7,2.9,3.7,4.5c1,1.7,1.8,3.5,2.4,5.4C416.1,253.6,416.4,255.7,416.4,257.8z"/>
	<path class="st6" d="M440.3,306.3h-14.9l33.1-57.5h-33.3v-12.5h49.1v10.6L440.3,306.3z"/>
	<path class="st6" d="M529.1,284.8c0,3.1-0.5,6-1.6,8.7s-2.6,5.1-4.5,7.2c-2,2.1-4.4,3.7-7.2,4.9c-2.8,1.2-6,1.8-9.6,1.8
		c-3,0-5.8-0.5-8.4-1.5c-2.7-1-5-2.5-7.1-4.6s-3.7-4.6-5-7.7c-1.3-3.1-1.9-6.8-2-11h12.8c0.1,2.3,0.4,4.2,0.9,5.8
		c0.5,1.6,1.2,2.9,2,3.9c0.8,1,1.8,1.7,2.9,2.1c1.1,0.4,2.4,0.7,3.7,0.7c1.4,0,2.7-0.2,3.9-0.7c1.2-0.5,2.2-1.2,3.1-2.1
		s1.6-1.9,2-3.2c0.5-1.2,0.7-2.5,0.7-3.9c0-1.2-0.2-2.3-0.6-3.3s-1.1-1.9-2.1-2.7c-1-0.8-2.2-1.5-3.8-2c-1.6-0.6-3.5-0.9-5.8-1.2
		v-11.7c2.1-0.2,3.9-0.6,5.4-1.2c1.4-0.5,2.6-1.2,3.5-2s1.5-1.7,1.9-2.6c0.4-1,0.6-2,0.6-3.1c0-1.2-0.2-2.3-0.6-3.2
		c-0.4-0.9-1-1.8-1.7-2.4c-0.7-0.7-1.5-1.2-2.5-1.5s-2-0.5-3.2-0.5c-1.1,0-2.1,0.2-3,0.5c-1,0.3-1.8,1-2.5,1.8
		c-0.7,0.9-1.3,2.1-1.7,3.6s-0.6,3.5-0.6,5.8h-13.1c0-4.1,0.5-7.6,1.6-10.7c1.1-3,2.5-5.6,4.4-7.6c1.9-2,4.1-3.5,6.7-4.5
		c2.6-1,5.4-1.5,8.5-1.5c1.9,0,3.8,0.2,5.6,0.7s3.5,1.1,5,1.9c1.6,0.8,3,1.9,4.3,3.1c1.3,1.2,2.4,2.6,3.3,4.1s1.6,3.1,2.1,4.9
		s0.8,3.6,0.8,5.6c0,2.8-0.5,5.4-1.5,7.8c-1,2.4-2.5,4.5-4.6,6.5c2.3,2,4.1,4.4,5.3,6.9C528.5,279.2,529.1,281.9,529.1,284.8z"/>
	<path class="st6" d="M589.1,281.4c0,2.3-0.3,4.5-0.9,6.7c-0.6,2.2-1.5,4.2-2.5,6.1c-1.1,1.9-2.4,3.7-3.9,5.3s-3.3,3-5.1,4.1
		c-1.9,1.2-3.9,2.1-6.1,2.7c-2.2,0.6-4.4,1-6.8,1c-2.4,0-4.7-0.3-6.8-0.9c-2.2-0.6-4.2-1.5-6.1-2.6c-1.9-1.1-3.6-2.5-5.1-4.1
		c-1.5-1.6-2.9-3.3-3.9-5.3c-1.1-1.9-1.9-4-2.5-6.2c-0.6-2.2-0.9-4.5-0.9-6.9c0-1.6,0.1-3,0.3-4.5s0.6-2.8,1-4.1
		c0.4-1.3,1-2.6,1.6-3.8c0.6-1.2,1.3-2.4,2.1-3.6l19.7-29.3h15.8l-13.1,19.2c2.2,0.2,4.3,0.6,6.4,1.4s3.9,1.7,5.7,2.9
		c1.7,1.2,3.3,2.6,4.7,4.1c1.4,1.6,2.6,3.3,3.6,5.2s1.8,3.9,2.3,6C588.8,277,589.1,279.1,589.1,281.4z M576,281.4
		c0-1.9-0.3-3.7-1-5.4s-1.6-3.1-2.8-4.3c-1.1-1.2-2.5-2.2-3.9-2.8c-1.5-0.7-3-1-4.6-1c-1.6,0-3.1,0.3-4.6,1
		c-1.5,0.7-2.8,1.6-3.9,2.8c-1.1,1.2-2,2.6-2.7,4.3s-1,3.5-1,5.5s0.3,3.8,1,5.5s1.6,3.1,2.7,4.3s2.4,2.1,3.9,2.8c1.5,0.7,3,1,4.6,1
		c1.6,0,3.1-0.3,4.6-1c1.5-0.7,2.8-1.6,3.9-2.8c1.1-1.2,2.1-2.6,2.8-4.3C575.7,285.1,576,283.3,576,281.4z"/>
	<path class="st6" d="M595.5,285.7v-10.6h31.2v10.6H595.5z"/>
	<path class="st6" d="M676.8,294.8v11.5h-13.3v-11.5h-31.7v-9.7l34.6-48.8h10.4v45.9h7.7v12.6H676.8z M663.5,262l-14.4,20.2h14.4
		V262z"/>
	<path class="st6" d="M739.5,257.8c0,1.7-0.2,3.3-0.6,4.8s-0.9,3.1-1.6,4.5c-0.7,1.4-1.5,2.8-2.3,4.2c-0.9,1.3-1.8,2.6-2.8,3.8
		c-1,1.2-2,2.3-3,3.4c-1,1.1-2,2.1-2.9,3l-12.7,12.6h25.7v12.2h-46.8v-9.2l23.6-23.3c1.3-1.3,2.6-2.7,3.9-4.1
		c1.3-1.4,2.4-2.8,3.3-4.2s1.7-2.8,2.3-4.1c0.6-1.3,0.9-2.6,0.9-3.8c0-1.4-0.3-2.7-0.8-4c-0.5-1.2-1.3-2.3-2.2-3.2
		c-1-0.9-2.1-1.6-3.3-2.1c-1.3-0.5-2.6-0.8-4.1-0.8c-1.4,0-2.8,0.3-4,0.8s-2.4,1.3-3.3,2.5c-0.9,1.1-1.7,2.6-2.2,4.5
		s-0.8,4.1-0.8,6.8h-13.2c0.1-3.1,0.4-5.9,1.1-8.4c0.6-2.5,1.5-4.8,2.6-6.8s2.4-3.7,3.8-5.2c1.5-1.5,3.1-2.7,4.8-3.6
		c1.7-0.9,3.5-1.7,5.5-2.1c1.9-0.5,3.9-0.7,5.8-0.7c2.2,0,4.3,0.3,6.3,0.8c2,0.5,3.9,1.3,5.6,2.2c1.7,1,3.3,2.1,4.8,3.4
		c1.4,1.3,2.7,2.9,3.7,4.5c1,1.7,1.8,3.5,2.4,5.4C739.2,253.6,739.5,255.7,739.5,257.8z"/>
	<path class="st6" d="M795.5,286c0,2-0.3,4-0.9,5.9s-1.4,3.6-2.4,5.2s-2.2,3-3.7,4.3c-1.4,1.3-3,2.4-4.7,3.3
		c-1.7,0.9-3.5,1.6-5.4,2.1c-1.9,0.5-3.9,0.7-5.9,0.7s-4-0.2-5.9-0.7c-1.9-0.5-3.7-1.2-5.4-2.1c-1.7-0.9-3.3-2-4.7-3.3
		c-1.4-1.3-2.6-2.7-3.7-4.3c-1-1.6-1.8-3.3-2.4-5.2c-0.6-1.9-0.9-3.8-0.9-5.9c0-6.8,2.4-12.2,7.2-16.3c-1.9-2-3.4-4.1-4.3-6.4
		c-0.9-2.3-1.4-4.7-1.4-7.3c0-3,0.5-5.7,1.6-8.2c1.1-2.5,2.6-4.7,4.5-6.6c1.9-1.9,4.2-3.3,6.8-4.4c2.6-1.1,5.5-1.6,8.5-1.6
		s5.9,0.5,8.5,1.6c2.6,1.1,4.9,2.5,6.8,4.4c1.9,1.9,3.4,4.1,4.5,6.6c1.1,2.5,1.6,5.3,1.6,8.2c0,2.6-0.5,5-1.4,7.3
		c-0.9,2.3-2.4,4.4-4.3,6.4C793.1,273.8,795.5,279.2,795.5,286z M782.4,285.6c0-1.3-0.3-2.5-0.8-3.6c-0.5-1.1-1.2-2.1-2.1-2.9
		c-0.9-0.8-1.9-1.5-3.1-1.9s-2.4-0.7-3.8-0.7c-1.3,0-2.6,0.2-3.8,0.7s-2.2,1.1-3.1,1.9c-0.9,0.8-1.6,1.8-2.1,2.9
		c-0.5,1.1-0.8,2.3-0.8,3.6c0,1.3,0.3,2.5,0.8,3.7c0.5,1.1,1.2,2.1,2.1,3c0.9,0.9,1.9,1.5,3.1,2c1.2,0.5,2.4,0.7,3.8,0.7
		c1.3,0,2.5-0.3,3.7-0.8c1.2-0.5,2.2-1.2,3.1-2.1c0.9-0.9,1.6-1.9,2.2-3S782.4,286.9,782.4,285.6z M780.9,255.9
		c0-1.2-0.2-2.2-0.7-3.3c-0.5-1-1.1-1.9-1.8-2.6c-0.8-0.7-1.7-1.3-2.7-1.7c-1-0.4-2.1-0.6-3.2-0.6c-1.2,0-2.3,0.2-3.3,0.6
		c-1,0.4-1.9,1-2.7,1.7c-0.8,0.7-1.3,1.6-1.8,2.6c-0.4,1-0.6,2.1-0.6,3.3s0.2,2.2,0.6,3.2c0.4,1,1,1.8,1.8,2.5
		c0.8,0.7,1.6,1.2,2.7,1.6c1,0.4,2.1,0.6,3.3,0.6s2.3-0.2,3.3-0.6c1-0.4,1.9-1,2.7-1.7c0.8-0.7,1.3-1.5,1.8-2.5
		C780.7,258.1,780.9,257,780.9,255.9z"/>
	<path class="st6" d="M852.5,286c0,2-0.3,4-0.9,5.9s-1.4,3.6-2.4,5.2s-2.2,3-3.7,4.3c-1.4,1.3-3,2.4-4.7,3.3
		c-1.7,0.9-3.5,1.6-5.4,2.1c-1.9,0.5-3.9,0.7-5.9,0.7s-4-0.2-5.9-0.7c-1.9-0.5-3.7-1.2-5.4-2.1c-1.7-0.9-3.3-2-4.7-3.3
		c-1.4-1.3-2.6-2.7-3.7-4.3c-1-1.6-1.8-3.3-2.4-5.2c-0.6-1.9-0.9-3.8-0.9-5.9c0-6.8,2.4-12.2,7.2-16.3c-1.9-2-3.4-4.1-4.3-6.4
		c-0.9-2.3-1.4-4.7-1.4-7.3c0-3,0.5-5.7,1.6-8.2c1.1-2.5,2.6-4.7,4.5-6.6c1.9-1.9,4.2-3.3,6.8-4.4c2.6-1.1,5.5-1.6,8.5-1.6
		s5.9,0.5,8.5,1.6c2.6,1.1,4.9,2.5,6.8,4.4c1.9,1.9,3.4,4.1,4.5,6.6c1.1,2.5,1.6,5.3,1.6,8.2c0,2.6-0.5,5-1.4,7.3
		c-0.9,2.3-2.4,4.4-4.3,6.4C850.1,273.8,852.5,279.2,852.5,286z M839.4,285.6c0-1.3-0.3-2.5-0.8-3.6c-0.5-1.1-1.2-2.1-2.1-2.9
		c-0.9-0.8-1.9-1.5-3.1-1.9s-2.4-0.7-3.8-0.7c-1.3,0-2.6,0.2-3.8,0.7s-2.2,1.1-3.1,1.9c-0.9,0.8-1.6,1.8-2.1,2.9
		c-0.5,1.1-0.8,2.3-0.8,3.6c0,1.3,0.3,2.5,0.8,3.7c0.5,1.1,1.2,2.1,2.1,3c0.9,0.9,1.9,1.5,3.1,2c1.2,0.5,2.4,0.7,3.8,0.7
		c1.3,0,2.5-0.3,3.7-0.8c1.2-0.5,2.2-1.2,3.1-2.1c0.9-0.9,1.6-1.9,2.2-3S839.4,286.9,839.4,285.6z M837.9,255.9
		c0-1.2-0.2-2.2-0.7-3.3c-0.5-1-1.1-1.9-1.8-2.6c-0.8-0.7-1.7-1.3-2.7-1.7c-1-0.4-2.1-0.6-3.2-0.6c-1.2,0-2.3,0.2-3.3,0.6
		c-1,0.4-1.9,1-2.7,1.7c-0.8,0.7-1.3,1.6-1.8,2.6c-0.4,1-0.6,2.1-0.6,3.3s0.2,2.2,0.6,3.2c0.4,1,1,1.8,1.8,2.5
		c0.8,0.7,1.6,1.2,2.7,1.6c1,0.4,2.1,0.6,3.3,0.6s2.3-0.2,3.3-0.6c1-0.4,1.9-1,2.7-1.7c0.8-0.7,1.3-1.5,1.8-2.5
		C837.7,258.1,837.9,257,837.9,255.9z"/>
</g>
</svg>
